<svg xmlns="http://www.w3.org/2000/svg" width="60" height="60" viewBox="0 0 60 60">
    <defs>
        <linearGradient id="a" x1="50%" x2="50%" y1="100%" y2="0%">
            <stop offset="0%" stop-color="#C8270C"/>
            <stop offset="100%" stop-color="#F45438"/>
        </linearGradient>
    </defs>
    <g fill="none" fill-rule="evenodd">
        <circle cx="30" cy="30" r="30" fill="url(#a)"/>
        <path fill="#FFF" d="M23.513 23a2.5 2.5 0 1 0 0 5 2.5 2.5 0 0 0 0-5m18 4.5a1 1 0 1 1 0-2 1 1 0 0 1 0 2m-3-3a1 1 0 1 1 0-2 1 1 0 0 1 0 2m0 6a1 1 0 1 1 0-2 1 1 0 0 1 0 2m-3.062-3a1 1 0 1 1 0-2.001 1 1 0 0 1 0 2.001M23.513 30a4.5 4.5 0 1 1 0-9 4.5 4.5 0 0 1 0 9m13.5-13c-1.417 0-4.167 2-6.5 2s-5.25-2-6.5-2c-8.583 0-13.5 23.083-7.083 23.083 5.416 0 6.146-6.75 13.562-6.75 6 0 9.521 6.667 13.521 6.667 6.417 0 1.583-23-7-23"/>
    </g>
</svg>
