<svg xmlns="http://www.w3.org/2000/svg" width="16" height="16" viewBox="0 0 16 16">
    <path fill="#86CAFF" fill-rule="evenodd" d="M13.366 8.148l-.462.725.371 1.482-1.372-.304C11.963 9.709 12 9.359 12 9a6 6 0 0 0-4.762-5.87A3.979 3.979 0 0 1 10 2.01c2.206 0 4 1.795 4 4 0 .747-.219 1.487-.634 2.138zM6 13.01c-.182 0-.395-.023-.689-.074l-.39-.068-2.195.488.371-1.483-.462-.725A3.97 3.97 0 0 1 2 9.01c0-2.205 1.795-4 4-4 2.206 0 4 1.795 4 4 0 2.206-1.794 4-4 4zm9.053-3.798A5.95 5.95 0 0 0 16 6a6 6 0 0 0-6-6C7.733 0 5.783 1.273 4.762 3.13A6 6 0 0 0 0 9a5.96 5.96 0 0 0 .947 3.212L0 16l4.968-1.104c.337.059.679.104 1.032.104a5.996 5.996 0 0 0 5.228-3.06L16 13l-.947-3.788z"/>
</svg>
