<svg xmlns="http://www.w3.org/2000/svg" width="26" height="26" viewBox="0 0 26 26">
    <g fill="none" fill-rule="evenodd">
        <path fill="#FFF" d="M2.012 18.885C2.503 18.83 3.52 18.755 4 19c.831.423 1.734 1.448 1.734 1.448L3.74 22.763A4.956 4.956 0 0 0 7 24a5 5 0 0 0 5-5c0-.473-.086-.922-.209-1.355-.407.475-1.232 1.083-1.232 1.083-.7-.077-.36.789-.36.789.295 1.915-.721 2.152-.721 2.152C8.093 23.092 7 20 7 20c-.256-1.721-.404-2.272-.404-2.272-1.773-1.108-.026-1.512.35-1.576h.011c.09-.013.068-.014-.011 0-.502.069-.406-.236-.71-.788-.307-.557-.682.094-.721 0-.038-.093-.215 1.02-.72 1.182-.505.162-.36-1.182-.36-1.182-.975 1.493-1.294 1.112-1.396.621a4.97 4.97 0 0 0-1.027 2.9M7 26a7 7 0 1 1 0-14 7 7 0 0 1 0 14"/>
        <g transform="translate(6)">
            <circle cx="10" cy="10" r="10" fill="#1A91EB"/>
            <text fill="#FFF" font-family=".AppleSystemUIFont" font-size="12">
                <tspan x="8" y="15">1</tspan>
            </text>
        </g>
    </g>
</svg>
