<svg xmlns="http://www.w3.org/2000/svg" width="26" height="26" viewBox="0 0 26 26">
    <g fill="none" fill-rule="evenodd">
        <path fill="#FFF" d="M14 22c0-1.08-1.151-2.018-2.862-2.546A3.98 3.98 0 0 1 8 21a3.98 3.98 0 0 1-3.138-1.546C3.151 19.982 2 20.92 2 22v2h12v-2zm-4-8a2 2 0 1 0-4 0v3a2 2 0 1 0 4 0v-3zm5 12H1a1 1 0 0 1-1-1v-3c0-1.864 1.648-3.472 4.068-4.331A3.88 3.88 0 0 1 4 17v-3a4 4 0 0 1 8 0v3c0 .229-.03.451-.068.669C14.352 18.528 16 20.136 16 22v3a1 1 0 0 1-1 1z"/>
        <g transform="translate(6)">
            <circle cx="10" cy="10" r="10" fill="#1A91EB"/>
            <text fill="#FFF" font-family=".AppleSystemUIFont" font-size="12">
                <tspan x="6.788" y="15">5</tspan>
            </text>
        </g>
    </g>
</svg>
