<svg xmlns="http://www.w3.org/2000/svg" width="60" height="60" viewBox="0 0 60 60">
    <defs>
        <linearGradient id="a" x1="50%" x2="50%" y1="100%" y2="1.022%">
            <stop offset="0%" stop-color="#7D5BE2"/>
            <stop offset="100%" stop-color="#9D8FE3"/>
        </linearGradient>
    </defs>
    <g fill="none" fill-rule="evenodd">
        <circle cx="30" cy="30" r="30" fill="url(#a)"/>
        <path fill="#FFF" d="M31.263 45L31 44l-.5 3.083L30 44l-.28 1L27 43h7l-2.737 2zM22 43c.383 0-4-3.188-4-10 0-4.066 3.861-5 4-5-.139 0 .122 5.055 2 11-1.93 2.021-1.617 4-2 4zm8-28v-3h1v3c1.134.837 4.505 3.896 6 9H24c1.445-4.963 4.762-8.082 6-9zm-3 27c-.348 0-3-8.892-3-13 0-1.243-.002-2.66 0-4h13c.012 1.342 0 2.76 0 4 0 4.052-2.643 13-3 13h-7zm3.5-10a2.5 2.5 0 1 0 0-5 2.5 2.5 0 0 0 0 5zM39 43c-.383 0-.07-1.979-2-4 1.878-5.945 2.14-11 2-11 .14 0 4 .934 4 5 0 6.812-4.383 10-4 10z"/>
    </g>
</svg>
