<svg xmlns="http://www.w3.org/2000/svg" width="17" height="16" viewBox="0 0 17 16">
    <path fill="#B7C0CD" fill-rule="evenodd" d="M2.008 0v14h14v2h-15a1 1 0 0 1-1-1V0h2zm3.5 12h-1a.5.5 0 0 1-.5-.5v-5a.5.5 0 0 1 .5-.5h1a.5.5 0 0 1 .5.5v5a.5.5 0 0 1-.5.5zm3 0h-1a.5.5 0 0 1-.5-.5v-9a.5.5 0 0 1 .5-.5h1a.5.5 0 0 1 .5.5v9a.5.5 0 0 1-.5.5zm3 0h-1a.5.5 0 0 1-.5-.5v-3a.5.5 0 0 1 .5-.5h1a.5.5 0 0 1 .5.5v3a.5.5 0 0 1-.5.5zm3 0h-1a.5.5 0 0 1-.5-.5v-7a.5.5 0 0 1 .5-.5h1a.5.5 0 0 1 .5.5v7a.5.5 0 0 1-.5.5z"/>
</svg>
