<svg xmlns="http://www.w3.org/2000/svg" width="16" height="16" viewBox="0 0 16 16">
    <path fill="#475364" fill-rule="evenodd" d="M8 5a3 3 0 1 0 0 6 3 3 0 0 0 0-6zm8 2v2h-2.091a5.93 5.93 0 0 1-.994 2.407l2.097 1.824-1.444 1.782-2.311-2.01A5.97 5.97 0 0 1 9 13.899V16H7v-2.091a5.895 5.895 0 0 1-2.26-.903l-2.308 2.007-1.444-1.782 2.101-1.827A5.97 5.97 0 0 1 2.101 9H0V7h2.091a5.93 5.93 0 0 1 .994-2.407L.988 2.77 2.432.987l2.312 2.01A5.96 5.96 0 0 1 7 2.101V0h2v2.101a5.97 5.97 0 0 1 2.257.896l2.311-2.01 1.444 1.783-2.097 1.823A5.93 5.93 0 0 1 13.909 7H16z"/>
</svg>
