<svg xmlns="http://www.w3.org/2000/svg" width="18" height="17" viewBox="0 0 18 17">
    <path fill="#B7C0CD" fill-rule="evenodd" d="M16.003 9.6l-2.241-2.24c-.02-.025-.028-.054-.05-.076A.983.983 0 0 0 13 6.996a.982.982 0 0 0-.71.286c-.017.018-.023.042-.04.061L4.6 14.995H2.5a.5.5 0 0 1-.5-.5V3.493a.5.5 0 0 1 .5-.5h13.002a.5.5 0 0 1 .5.5V9.6zm0 4.895a.5.5 0 0 1-.5.5h-8.1l5.603-5.603 2.997 2.997v2.106zm1-13.502H1a1 1 0 0 0-1 1v14.003a1 1 0 0 0 1 1h16.003a1 1 0 0 0 1-1V1.993a1 1 0 0 0-1-1zM6 4.993a2 2 0 1 0 0 4 2 2 0 0 0 0-4z"/>
</svg>
