<svg xmlns="http://www.w3.org/2000/svg" width="16" height="15" viewBox="0 0 16 15">
    <path fill="#B0EDB8" fill-rule="evenodd" d="M7.241 10.711a1 1 0 0 0 .708.293c.013 0 .023-.007.036-.007L8 11c.337 0 .62-.177.801-.431l2.894-2.882a.997.997 0 0 0 0-1.414 1.004 1.004 0 0 0-1.417 0L9 7.544V1a1 1 0 1 0-2 0v6.62L5.691 6.281a1.003 1.003 0 0 0-1.416 0 .997.997 0 0 0 0 1.414l2.966 3.016zM15 9a1 1 0 0 0-1 1v2a1 1 0 0 1-1 1H3a1 1 0 0 1-1-1v-2a1 1 0 1 0-2 0v3a2 2 0 0 0 2 2h12a2 2 0 0 0 2-2v-3a1 1 0 0 0-1-1z"/>
</svg>
