<svg xmlns="http://www.w3.org/2000/svg" width="324" height="14" viewBox="0 0 324 14">
    <g fill="none" fill-rule="evenodd">
        <path fill="#38BA24" d="M0 3.993A3.993 3.993 0 0 1 3.993 0H14v14H3.993A3.993 3.993 0 0 1 0 10.007V3.993zM16 0h12v14H16zM30 0h12v14H30zM44 0h12v14H44zM58 0h12v14H58zM72 0h12v14H72zM86 0h12v14H86zM100 0h12v14h-12zM114 0h12v14h-12zM128 0h12v14h-12zM142 0h12v14h-12zM156 0h12v14h-12zM170 0h12v14h-12zM184 0h12v14h-12zM198 0h12v14h-12zM212 0h12v14h-12zM226 0h12v14h-12zM240 0h12v14h-12z"/>
        <path fill="#96A3B7" d="M254 0h12v14h-12z"/>
        <path fill="#E2E7EE" d="M268 0h12v14h-12zM282 0h12v14h-12zM296 0h12v14h-12zM310 0h10.007A3.993 3.993 0 0 1 324 3.993v6.014A3.993 3.993 0 0 1 320.007 14H310V0z"/>
    </g>
</svg>
