<svg xmlns="http://www.w3.org/2000/svg" width="478" height="38" viewBox="0 0 478 38">
    <g fill="none" fill-rule="evenodd">
        <path fill="#38BA24" d="M0 3.995A3.994 3.994 0 0 1 3.993 0H14v38H3.993A3.99 3.99 0 0 1 0 34.005V3.995zM16 0h12v38H16zM30 0h12v38H30zM44 0h12v38H44zM58 0h12v38H58zM72 0h12v38H72zM86 0h12v38H86zM100 0h12v38h-12zM114 0h12v38h-12zM128 0h12v38h-12zM142 0h12v38h-12zM156 0h12v38h-12zM170 0h12v38h-12zM184 0h12v38h-12zM198 0h12v38h-12zM212 0h12v38h-12zM226 0h12v38h-12zM240 0h12v38h-12zM254 0h12v38h-12zM268 0h12v38h-12z"/>
        <path fill="#96A3B7" d="M282 0h12v38h-12zM296 0h12v38h-12zM310 0h12v38h-12zM324 0h12v38h-12zM338 0h12v38h-12zM352 0h12v38h-12zM366 0h12v38h-12z"/>
        <path fill="#E2E7EE" d="M436 0h12v38h-12zM380 0h12v38h-12zM394 0h12v38h-12zM408 0h12v38h-12zM422 0h12v38h-12z"/>
        <path fill="#E2E7EE" d="M436 0h12v38h-12zM450 0h12v38h-12zM464 0h10.007A3.99 3.99 0 0 1 478 3.995v30.01A3.994 3.994 0 0 1 474.007 38H464V0z"/>
    </g>
</svg>
